<?xml version="1.0" standalone="no"?>
<!DOCTYPE svg PUBLIC "-//W3C//DTD SVG 20010904//EN"
 "http://www.w3.org/TR/2001/REC-SVG-20010904/DTD/svg10.dtd">
<svg version="1.0" xmlns="http://www.w3.org/2000/svg"
 width="504.000000pt" height="504.000000pt" viewBox="0 0 504.000000 504.000000"
 preserveAspectRatio="xMidYMid meet">
<metadata>
Created by potrace 1.11, written by Peter Selinger 2001-2013
</metadata>
<g transform="translate(0.000000,504.000000) scale(0.100000,-0.100000)"
fill="#000000" stroke="none">
<path d="M2015 4644 c-514 -28 -1014 -248 -1380 -609 -327 -323 -524 -701
-612 -1175 -28 -149 -25 -544 4 -705 94 -517 354 -959 759 -1294 211 -174 512
-328 784 -400 219 -58 283 -65 550 -66 276 0 379 13 606 79 800 231 1400 931
1509 1762 17 132 20 400 5 524 -66 544 -332 1041 -739 1381 -192 161 -452 311
-671 387 -241 84 -560 129 -815 116z m345 -154 c443 -55 856 -257 1168 -570
298 -299 485 -663 559 -1090 24 -136 24 -499 0 -630 -67 -361 -205 -669 -425
-941 -82 -102 -259 -270 -362 -343 -261 -187 -509 -295 -830 -358 -100 -20
-146 -23 -345 -23 -195 1 -248 4 -347 23 -452 86 -827 296 -1134 636 -244 269
-406 601 -475 969 -29 159 -37 441 -15 603 118 891 804 1590 1686 1718 116 17
404 20 520 6z"/>
<path d="M1220 3291 c-76 -80 -94 -267 -36 -384 31 -63 66 -91 116 -91 84 0
141 91 148 235 5 111 -16 185 -68 241 -32 33 -43 38 -80 38 -37 0 -48 -5 -80
-39z"/>
<path d="M2850 3292 c-52 -56 -73 -130 -68 -241 7 -144 64 -235 148 -235 81 0
140 90 148 226 9 163 -55 288 -148 288 -37 0 -48 -5 -80 -38z"/>
<path d="M863 2223 l-53 -35 50 -72 c394 -566 1107 -808 1765 -599 256 81 485
227 673 428 75 80 182 222 182 242 0 8 -101 73 -114 73 -3 0 -20 -21 -37 -47
-216 -319 -560 -540 -949 -609 -112 -20 -339 -20 -460 0 -307 50 -556 180
-780 405 -63 64 -135 146 -160 183 -25 37 -49 67 -55 67 -5 -1 -34 -17 -62
-36z"/>
</g>
</svg>
